<?xml version="1.0" encoding="UTF-8" standalone="no"?>
<!-- Generator: Adobe Illustrator 19.1.0, SVG Export Plug-In . SVG Version: 6.00 Build 0)  -->

<svg
   xmlns:dc="http://purl.org/dc/elements/1.1/"
   xmlns:cc="http://creativecommons.org/ns#"
   xmlns:rdf="http://www.w3.org/1999/02/22-rdf-syntax-ns#"
   xmlns:svg="http://www.w3.org/2000/svg"
   xmlns="http://www.w3.org/2000/svg"
   xmlns:sodipodi="http://sodipodi.sourceforge.net/DTD/sodipodi-0.dtd"
   xmlns:inkscape="http://www.inkscape.org/namespaces/inkscape"
   version="1.1"
   x="0px"
   y="0px"
   viewBox="0 0 64 64"
   style="enable-background:new 0 0 64 64;"
   xml:space="preserve"
   id="svg1798"
   sodipodi:docname="Circle-icons-chat-light blue.svg"
   inkscape:version="0.92.4 (5da689c313, 2019-01-14)"><metadata
   id="metadata1804"><rdf:RDF><cc:Work
       rdf:about=""><dc:format>image/svg+xml</dc:format><dc:type
         rdf:resource="http://purl.org/dc/dcmitype/StillImage" /><dc:title></dc:title></cc:Work></rdf:RDF></metadata><defs
   id="defs1802" /><sodipodi:namedview
   pagecolor="#ffffff"
   bordercolor="#666666"
   borderopacity="1"
   objecttolerance="10"
   gridtolerance="10"
   guidetolerance="10"
   inkscape:pageopacity="0"
   inkscape:pageshadow="2"
   inkscape:window-width="1680"
   inkscape:window-height="987"
   id="namedview1800"
   showgrid="false"
   inkscape:zoom="7.375"
   inkscape:cx="43.20761"
   inkscape:cy="30.215734"
   inkscape:window-x="-8"
   inkscape:window-y="-8"
   inkscape:window-maximized="1"
   inkscape:current-layer="g1770" />
<style
   type="text/css"
   id="style1766">
	.st0{fill:#77B3D4;}
	.st1{opacity:0.2;}
	.st2{fill:#231F20;}
	.st3{fill:#FFFFFF;}
	.st4{fill:#4F5D73;}
</style>
<g
   id="Layer_1">
	<g
   id="g1770">
		<circle
   class="st0"
   cx="32"
   cy="32"
   r="32"
   id="circle1768"
   style="fill:#7bbce5;fill-opacity:1" />
	</g>
	<g
   class="st1"
   id="g1774">
		<path
   class="st2"
   d="M52,32c0-9.9-9-18-20-18s-20,8.1-20,18c0,9.6,8.3,17.4,18.8,17.9C31.5,53.6,32,56,32,56s5-3,9.6-8.2    C47.8,44.7,52,38.8,52,32z"
   id="path1772" />
	</g>
	<g
   id="g1778">
		<path
   class="st3"
   d="M49,28.8C49,43.8,32,54,32,54s-9.4-42,0-42S49,19.5,49,28.8z"
   id="path1776" />
	</g>
	<g
   id="g1782">
		<ellipse
   class="st3"
   cx="32"
   cy="30"
   rx="20"
   ry="18"
   id="ellipse1780" />
	</g>
	<g
   id="g1786">
		<circle
   class="st4"
   cx="32"
   cy="30"
   r="2"
   id="circle1784" />
	</g>
	<g
   id="g1790">
		<circle
   class="st4"
   cx="40"
   cy="30"
   r="2"
   id="circle1788" />
	</g>
	<g
   id="g1794">
		<circle
   class="st4"
   cx="24"
   cy="30"
   r="2"
   id="circle1792" />
	</g>
</g>
<g
   id="Layer_2">
</g>
</svg>